<svg version="1.1" xmlns="http://www.w3.org/2000/svg" xmlns:xlink="http://www.w3.org/1999/xlink" viewBox="0 0 226 226"><g transform=""><g fill="none" fill-rule="nonzero" stroke="none" stroke-width="1" stroke-linecap="butt" stroke-linejoin="miter" stroke-miterlimit="10" stroke-dasharray="" stroke-dashoffset="0" font-family="none" font-weight="none" font-size="none" text-anchor="none" style="mix-blend-mode: normal"><path d="M0,226v-226h226v226z" fill="none"/><path d="M113,221.48c-59.91185,0 -108.48,-48.56815 -108.48,-108.48v0c0,-59.91185 48.56815,-108.48 108.48,-108.48v0c59.91185,0 108.48,48.56815 108.48,108.48v0c0,59.91185 -48.56815,108.48 -108.48,108.48z" fill="#e6e1ea"/><g fill="#9b59b6"><path d="M110.16413,39.2675c-35.96897,0 -65.2249,29.25594 -65.2249,65.2249v8.67376c-12.73924,1.41793 -22.68692,12.24075 -22.68692,25.35662v17.01519c0,14.06855 11.44316,25.52279 25.52279,25.52279h3.35651c1.17422,3.29005 4.29811,5.67173 7.98695,5.67173c4.68583,0 8.5076,-3.82177 8.5076,-8.5076v-62.38904c0,-4.68583 -3.82177,-8.5076 -8.5076,-8.5076c-3.68884,0 -6.81272,2.38168 -7.98695,5.67173h-0.52065v-8.5076c0,-13.81377 4.76337,-26.51977 12.69493,-36.63362l12.85002,12.60631c2.21552,2.17121 5.08462,3.27897 7.95371,3.27897c2.53677,0 5.05139,-0.85297 7.13397,-2.59216c6.09268,-5.06246 13.81377,-7.85402 21.7564,-7.85402c7.90941,0 15.61942,2.78048 21.70102,7.82079c4.45319,3.68884 10.94467,3.36759 15.10985,-0.73112l12.78355,-12.65062c7.98695,10.136 12.79463,22.88632 12.79463,36.75547v8.5076h-0.52065c-1.17422,-3.29005 -4.29811,-5.67173 -7.98695,-5.67173c-4.68583,0 -8.5076,3.82177 -8.5076,8.5076v62.38904c0,4.68583 3.82177,8.5076 8.5076,8.5076c3.68884,0 6.81272,-2.38168 7.98695,-5.67173h3.35651c14.07963,0 25.52279,-11.45424 25.52279,-25.52279v-17.01519c0,-13.11588 -9.94768,-23.93869 -22.68692,-25.35662v-8.67376c0,-35.96897 -29.25594,-65.2249 -65.2249,-65.2249zM110.16413,44.93923h5.67173c16.92657,0 32.1915,7.13397 43.03647,18.51067l-13.04941,12.89433c-2.08259,2.04936 -5.30617,2.2266 -7.51061,0.40987c-7.08966,-5.89328 -16.07359,-9.12794 -25.31231,-9.12794c-9.26087,0 -18.27804,3.25682 -25.38986,9.17225c-2.18229,1.8278 -5.40587,1.66164 -7.48846,-0.38772l-13.1048,-12.85002c10.85605,-11.44316 26.16529,-18.62144 43.14725,-18.62144zM113,50.61096c-1.57302,0 -2.83587,1.27392 -2.83587,2.83587v5.67173c0,1.56194 1.26285,2.83587 2.83587,2.83587c1.57302,0 2.83587,-1.27392 2.83587,-2.83587v-5.67173c0,-1.56194 -1.26284,-2.83587 -2.83587,-2.83587zM128.38678,52.70463c-1.0856,0.15509 -2.03828,0.9416 -2.34845,2.08259l-1.47332,5.48341c-0.39879,1.50655 0.49849,3.06849 2.00504,3.46729c0.25479,0.06647 0.49849,0.0997 0.7422,0.0997c1.25177,0 2.40384,-0.83082 2.74724,-2.10475l1.46224,-5.48341c0.40987,-1.50655 -0.49849,-3.05742 -2.00504,-3.46729c-0.37664,-0.0997 -0.76435,-0.12185 -1.12992,-0.07754zM97.61322,52.71571c-0.36556,-0.05539 -0.75328,-0.03323 -1.12992,0.06646c-1.50655,0.40987 -2.41492,1.96073 -2.00504,3.47837l1.46224,5.47233c0.34341,1.27392 1.4844,2.11582 2.74724,2.11582c0.24371,0 0.48741,-0.03323 0.7422,-0.11078c1.50655,-0.39879 2.40384,-1.94966 2.00504,-3.46729l-1.47332,-5.48341c-0.31017,-1.12991 -1.26285,-1.91642 -2.34845,-2.07151zM82.15996,58.79731c-0.36556,0.04431 -0.73112,0.16616 -1.06345,0.36556c-1.36255,0.77543 -1.81673,2.51462 -1.03022,3.86608l2.83587,4.90738c0.52065,0.91944 1.47332,1.41793 2.44815,1.41793c0.48741,0 0.97483,-0.11077 1.41793,-0.36556c1.36255,-0.78651 1.81673,-2.52569 1.03022,-3.88824l-2.83587,-4.90738c-0.58711,-1.00806 -1.70595,-1.52871 -2.80263,-1.39578zM143.84004,58.80838c-1.10776,-0.14401 -2.2266,0.37664 -2.80263,1.3847l-2.83587,4.91845c-0.78651,1.35147 -0.33233,3.09065 1.03022,3.87716c0.4431,0.25479 0.93052,0.37664 1.41793,0.37664c0.97483,0 1.9275,-0.50957 2.44815,-1.41793l2.83587,-4.91845c0.78651,-1.35147 0.32125,-3.07957 -1.03022,-3.86608c-0.34341,-0.1994 -0.70897,-0.31017 -1.06345,-0.35448zM59.11856,113c1.56194,0 2.83587,1.27392 2.83587,2.83587v62.38904c0,1.56194 -1.27392,2.83587 -2.83587,2.83587c-1.56194,0 -2.83587,-1.27392 -2.83587,-2.83587v-62.38904c0,-1.56194 1.27392,-2.83587 2.83587,-2.83587zM166.88144,113c1.56194,0 2.83587,1.27392 2.83587,2.83587v62.38904c0,1.56194 -1.27392,2.83587 -2.83587,2.83587c-1.56194,0 -2.83587,-1.27392 -2.83587,-2.83587v-62.38904c0,-1.56194 1.27392,-2.83587 2.83587,-2.83587zM47.7751,118.67173h2.83587v56.71731h-2.83587c-10.94467,0 -19.85106,-8.90639 -19.85106,-19.85106v-17.01519c0,-10.94467 8.90639,-19.85106 19.85106,-19.85106zM175.38904,118.67173h2.83587c10.94467,0 19.85106,8.90639 19.85106,19.85106v17.01519c0,10.94467 -8.90639,19.85106 -19.85106,19.85106h-2.83587z"/></g><path d="" fill="none"/><path d="" fill="none"/><path d="" fill="none"/><path d="" fill="none"/><path d="" fill="none"/><path d="" fill="none"/><path d="" fill="none"/><path d="" fill="none"/><path d="" fill="none"/><path d="" fill="none"/><path d="" fill="none"/><path d="" fill="none"/><path d="" fill="none"/><path d="" fill="none"/><path d="" fill="none"/><path d="" fill="none"/><path d="" fill="none"/><path d="" fill="none"/><path d="" fill="none"/><path d="" fill="none"/><path d="" fill="none"/><path d="" fill="none"/><path d="" fill="none"/><path d="" fill="none"/><path d="" fill="none"/><path d="" fill="none"/><path d="" fill="none"/><path d="" fill="none"/><path d="" fill="none"/><path d="" fill="none"/><path d="" fill="none"/><path d="" fill="none"/><path d="" fill="none"/><path d="" fill="none"/><path d="" fill="none"/><path d="" fill="none"/><path d="" fill="none"/><path d="" fill="none"/><path d="" fill="none"/><path d="" fill="none"/><path d="" fill="none"/><path d="" fill="none"/><path d="" fill="none"/><path d="" fill="none"/><path d="" fill="none"/><g fill="#c8876d"><path d="M99.36,191.89l2.51,8.08l2.03,-8.08h1.81l-3.08,10.57h-1.46l-2.57,-8.01l-2.5,8.01h-1.46l-3.07,-10.57h1.8l2.08,7.91l2.46,-7.91zM107.07,197.21v-0.13c0,-1.03333 0.20333,-1.96333 0.61,-2.79c0.40667,-0.82667 0.97333,-1.46667 1.7,-1.92c0.72667,-0.44667 1.55333,-0.67 2.48,-0.67v0c1.44,0 2.60333,0.49667 3.49,1.49c0.89333,1 1.34,2.32667 1.34,3.98v0v0.12c0,1.03333 -0.19667,1.95667 -0.59,2.77c-0.39333,0.82 -0.95667,1.45667 -1.69,1.91c-0.73333,0.46 -1.57667,0.69 -2.53,0.69v0c-1.43333,0 -2.59333,-0.5 -3.48,-1.5c-0.88667,-0.99333 -1.33,-2.31 -1.33,-3.95zM108.88,197.29v0c0,1.17333 0.27333,2.11667 0.82,2.83c0.54667,0.70667 1.27333,1.06 2.18,1.06v0c0.92,0 1.65,-0.36 2.19,-1.08c0.54,-0.72 0.81,-1.72667 0.81,-3.02v0c0,-1.16 -0.27333,-2.1 -0.82,-2.82c-0.55333,-0.72 -1.28667,-1.08 -2.2,-1.08v0c-0.88667,0 -1.60667,0.35667 -2.16,1.07c-0.54667,0.70667 -0.82,1.72 -0.82,3.04zM119.6,189.34h1.8v2.55h1.98v1.4h-1.98v6.55c0,0.42667 0.09,0.74333 0.27,0.95c0.17333,0.21333 0.47333,0.32 0.9,0.32v0c0.20667,0 0.49333,-0.03667 0.86,-0.11v0v1.46c-0.48,0.13333 -0.94333,0.2 -1.39,0.2v0c-0.80667,0 -1.41667,-0.24667 -1.83,-0.74c-0.40667,-0.48667 -0.61,-1.18 -0.61,-2.08v0v-6.55h-1.93v-1.4h1.93zM124.81,197.21v-0.13c0,-1.03333 0.20333,-1.96333 0.61,-2.79c0.40667,-0.82667 0.97333,-1.46667 1.7,-1.92c0.72667,-0.44667 1.55667,-0.67 2.49,-0.67v0c1.44,0 2.60333,0.49667 3.49,1.49c0.88667,1 1.33,2.32667 1.33,3.98v0v0.12c0,1.03333 -0.19667,1.95667 -0.59,2.77c-0.39333,0.82 -0.95667,1.45667 -1.69,1.91c-0.73333,0.46 -1.57333,0.69 -2.52,0.69v0c-1.43333,0 -2.59333,-0.5 -3.48,-1.5c-0.89333,-0.99333 -1.34,-2.31 -1.34,-3.95zM126.63,197.29v0c0,1.17333 0.27,2.11667 0.81,2.83c0.54667,0.70667 1.27667,1.06 2.19,1.06v0c0.91333,0 1.64,-0.36 2.18,-1.08c0.54,-0.72 0.81,-1.72667 0.81,-3.02v0c0,-1.16 -0.27333,-2.1 -0.82,-2.82c-0.55333,-0.72 -1.28333,-1.08 -2.19,-1.08v0c-0.89333,0 -1.61333,0.35667 -2.16,1.07c-0.54667,0.70667 -0.82,1.72 -0.82,3.04z"/></g><path d="" fill="none"/></g></g></svg>